<svg width="27" height="31" viewBox="0 0 27 31" fill="none" xmlns="http://www.w3.org/2000/svg">
<path d="M11.06 5.53C11.06 2.48 8.59 0 5.53 0C2.48 0 0 2.48 0 5.53C0 8.58 2.48 11.06 5.53 11.06C8.59 11.06 11.06 8.59 11.06 5.53ZM4.77 5.53C4.77 5.11 5.11 4.77 5.53 4.77C5.95 4.77 6.29 5.11 6.29 5.53C6.29 5.95 5.95 6.29 5.53 6.29C5.11 6.29 4.77 5.95 4.77 5.53Z" fill="white"/>
<path d="M6.60999 17.4199L17.88 30.9299H26.31L15.04 17.4199H6.60999Z" fill="white"/>
<path d="M15.04 15.8401L26.31 2.33008H17.88L6.60999 15.8401H15.04Z" fill="white"/>
<path d="M1.96002 21.0604V30.9504H8.11002V21.2704L5.09002 17.6504L1.96002 21.0604Z" fill="white"/>
</svg>
